<svg xmlns="http://www.w3.org/2000/svg" width="45" height="36" viewBox="0 0 45 36" fill="none"><path fill-rule="evenodd" clip-rule="evenodd" d="M13.9969 1.599C16.1962 1.518 16.8975 1.5 22.5 1.5C28.1025 1.5 28.8038 1.5195 31.0013 1.599C33.1988 1.6785 34.6987 1.959 36.0112 2.3655C37.3856 2.781 38.6325 3.4305 39.6637 4.2705C40.7137 5.094 41.5238 6.09 42.0413 7.191C42.5513 8.241 42.9 9.441 43.0013 11.196C43.1025 12.9585 43.125 13.5195 43.125 18C43.125 22.482 43.1006 23.043 43.0013 24.8025C42.9019 26.5575 42.5513 27.7575 42.0413 28.8075C41.5237 29.9086 40.7124 30.9063 39.6637 31.731C38.6325 32.571 37.3856 33.219 36.0112 33.633C34.6987 34.041 33.1987 34.32 31.005 34.401C28.8037 34.482 28.1025 34.5 22.5 34.5C16.8975 34.5 16.1962 34.4805 13.9969 34.401C11.8031 34.3215 10.3031 34.041 8.99063 33.633C7.61423 33.2189 6.36716 32.5699 5.33625 31.731C4.28696 30.907 3.47497 29.9098 2.95688 28.809C2.44875 27.759 2.1 26.559 1.99875 24.804C1.8975 23.0415 1.875 22.4805 1.875 18C1.875 13.518 1.89937 12.957 1.99875 11.199C2.09812 9.441 2.44875 8.241 2.95688 7.191C3.47573 6.09012 4.28835 5.09297 5.33812 4.269C6.36758 3.42975 7.61339 2.78017 8.98875 2.3655C10.3013 1.959 11.8013 1.68 13.995 1.599H13.9969ZM30.8344 4.569C28.6594 4.4895 28.0069 4.473 22.5 4.473C16.9931 4.473 16.3406 4.4895 14.1656 4.569C12.1537 4.6425 11.0625 4.911 10.335 5.1375C9.37313 5.4375 8.685 5.793 7.96313 6.3705C7.27883 6.90308 6.75221 7.55142 6.42188 8.268C6.13875 8.85 5.80312 9.723 5.71125 11.3325C5.61188 13.0725 5.59125 13.5945 5.59125 18C5.59125 22.4055 5.61188 22.9275 5.71125 24.6675C5.80312 26.277 6.13875 27.15 6.42188 27.732C6.75187 28.4475 7.27875 29.097 7.96313 29.6295C8.62875 30.177 9.44063 30.5985 10.335 30.8625C11.0625 31.089 12.1537 31.3575 14.1656 31.431C16.3406 31.5105 16.9913 31.527 22.5 31.527C28.0087 31.527 28.6594 31.5105 30.8344 31.431C32.8462 31.3575 33.9375 31.089 34.665 30.8625C35.6269 30.5625 36.315 30.207 37.0369 29.6295C37.7212 29.097 38.2481 28.4475 38.5781 27.732C38.8613 27.15 39.1969 26.277 39.2887 24.6675C39.3881 22.9275 39.4087 22.4055 39.4087 18C39.4087 13.5945 39.3881 13.0725 39.2887 11.3325C39.1969 9.723 38.8613 8.85 38.5781 8.268C38.2031 7.4985 37.7588 6.948 37.0369 6.3705C36.3711 5.82311 35.5607 5.40182 34.665 5.1375C33.9375 4.911 32.8462 4.6425 30.8344 4.569ZM19.8656 23.0865C21.3369 23.5764 22.9751 23.6426 24.5005 23.2736C26.0259 22.9046 27.3439 22.1234 28.2293 21.0634C29.1147 20.0034 29.5126 18.7303 29.3551 17.4617C29.1976 16.193 28.4944 15.0075 27.3656 14.1075C26.6461 13.5322 25.776 13.0917 24.8181 12.8177C23.8602 12.5437 22.8383 12.443 21.8259 12.5229C20.8136 12.6028 19.8359 12.8613 18.9634 13.2797C18.0909 13.6981 17.3451 14.2661 16.7799 14.9428C16.2147 15.6194 15.8441 16.3879 15.6947 17.1929C15.5453 17.9979 15.6209 18.8194 15.916 19.5983C16.2111 20.3771 16.7184 21.0939 17.4014 21.6971C18.0843 22.3003 18.9259 22.7748 19.8656 23.0865ZM15.0037 12.003C15.9882 11.2155 17.1568 10.5908 18.4431 10.1645C19.7293 9.73833 21.1078 9.51896 22.5 9.51896C23.8922 9.51896 25.2707 9.73833 26.5569 10.1645C27.8431 10.5908 29.0118 11.2155 29.9963 12.003C30.9807 12.7905 31.7616 13.7255 32.2943 14.7544C32.8271 15.7834 33.1013 16.8863 33.1013 18C33.1013 19.1137 32.8271 20.2166 32.2943 21.2456C31.7616 22.2745 30.9807 23.2095 29.9963 23.997C28.0081 25.5875 25.3116 26.481 22.5 26.481C19.6884 26.481 16.9919 25.5875 15.0037 23.997C13.0156 22.4065 11.8987 20.2493 11.8987 18C11.8987 15.7507 13.0156 13.5935 15.0037 12.003ZM35.4525 10.782C35.6964 10.5979 35.8917 10.3765 36.0268 10.131C36.1619 9.8854 36.234 9.62065 36.2389 9.3524C36.2438 9.08414 36.1814 8.81782 36.0553 8.56921C35.9292 8.32061 35.7421 8.09477 35.5049 7.90506C35.2678 7.71535 34.9855 7.56564 34.6747 7.46478C34.364 7.36392 34.0311 7.31396 33.6958 7.31787C33.3604 7.32178 33.0295 7.37948 32.7225 7.48754C32.4156 7.59561 32.1389 7.75184 31.9087 7.947C31.4612 8.32654 31.2162 8.83068 31.2257 9.3524C31.2352 9.87411 31.4985 10.3723 31.9597 10.7413C32.4209 11.1102 33.0436 11.3208 33.6958 11.3284C34.3479 11.3361 34.9781 11.14 35.4525 10.782Z" fill="black"></path></svg>