<svg xmlns="http://www.w3.org/2000/svg" width="44" height="36" viewBox="0 0 44 36" fill="none"><path d="M43.3454 7.40549C41.8146 7.96049 40.1701 8.33549 38.4413 8.50499C40.2251 7.63168 41.5597 6.25719 42.1959 4.63799C40.52 5.45248 38.6857 6.02579 36.7729 6.33299C35.4866 5.20929 33.7829 4.46448 31.9262 4.2142C30.0695 3.96393 28.1638 4.22218 26.5049 4.94887C24.846 5.67556 23.5267 6.83004 22.7519 8.23305C21.9771 9.63606 21.7901 11.2091 22.2199 12.708C18.824 12.5685 15.5019 11.8463 12.4692 10.5884C9.43651 9.33038 6.76098 7.56474 4.61627 5.40599C3.88294 6.44099 3.46127 7.64099 3.46127 8.91899C3.46046 10.0695 3.80673 11.2024 4.46938 12.2171C5.13204 13.2318 6.09057 14.0971 7.25994 14.736C5.90378 14.7007 4.57754 14.4009 3.39161 13.8615V13.9515C3.39147 15.5651 4.07367 17.1291 5.32244 18.378C6.57122 19.6269 8.30965 20.4839 10.2428 20.8035C8.98471 21.0821 7.66573 21.1231 6.38544 20.9235C6.93085 22.3119 7.99327 23.526 9.42395 24.3959C10.8546 25.2657 12.582 25.7478 14.3641 25.7745C11.3388 27.7176 7.60257 28.7716 3.75644 28.767C3.07514 28.7671 2.39441 28.7346 1.71777 28.6695C5.62181 30.7233 10.1664 31.8132 14.8078 31.809C30.5194 31.809 39.1086 21.162 39.1086 11.928C39.1086 11.628 39.0994 11.325 39.0829 11.025C40.7536 10.0365 42.1958 8.81234 43.3418 7.40999L43.3454 7.40549Z" fill="white"></path></svg>