<svg xmlns="http://www.w3.org/2000/svg" width="54" height="42" viewBox="0 0 54 42" fill="none"><g clip-path="url(#clip0_1765_138)"><path fill-rule="evenodd" clip-rule="evenodd" d="M27.7324 13.7629C30.8644 10.4685 34.3271 7.875 38.7551 7.875C47.115 7.875 54 16.1516 54.0034 26.0059C54.0034 32.0171 50.6756 35.784 44.6985 35.784C39.4909 35.784 36.6154 33.5107 31.455 26.796L29.2039 23.8481L28.8056 23.331C28.2186 22.5593 27.6223 21.7919 27.0169 21.0289L23.0411 26.4889C17.3948 34.167 14.2155 35.784 9.801 35.784C3.66525 35.784 0 32.0696 0 26.1791C0 16.7685 6.73313 7.875 15.5183 7.875C16.5949 7.875 17.6276 7.97737 18.6367 8.19525C19.683 8.421 20.6989 8.77275 21.7181 9.26363C23.6655 10.206 25.6129 11.6655 27.7324 13.7629ZM32.8489 19.6009C31.9984 18.5246 31.1816 17.535 30.3952 16.6267L30.375 16.6058C33.2269 13.1801 35.5826 11.4765 38.3805 11.4765C44.1956 11.4765 48.8498 18.1361 48.8498 26.3156C48.8498 29.4341 47.5335 31.2428 44.8166 31.2428C42.2078 31.2428 40.9624 29.904 36.0079 23.709L32.8455 19.6009H32.8489ZM16.3553 12.4845C18.8021 12.747 21.0296 14.1487 24.2528 17.7371C22.393 19.952 20.5536 22.1772 18.7346 24.4125C14.1548 29.9932 12.5719 31.2454 10.0238 31.2454C7.40138 31.2454 5.83875 29.4551 5.83875 26.2579C5.83875 19.4276 10.2195 12.4399 15.444 12.4399C15.7511 12.4399 16.0549 12.4556 16.3553 12.4871V12.4845Z" fill="white"></path></g><defs><clipPath id="clip0_1765_138"><rect width="54" height="42" fill="white"></rect></clipPath></defs></svg>