<svg xmlns="http://www.w3.org/2000/svg" width="43" height="34" viewBox="0 0 43 34" fill="none"><path fill-rule="evenodd" clip-rule="evenodd" d="M12.9969 0.599C15.1962 0.518 15.8975 0.5 21.5 0.5C27.1025 0.5 27.8038 0.5195 30.0013 0.599C32.1988 0.6785 33.6987 0.959 35.0112 1.3655C36.3856 1.781 37.6325 2.4305 38.6637 3.2705C39.7137 4.094 40.5238 5.09 41.0413 6.191C41.5513 7.241 41.9 8.441 42.0013 10.196C42.1025 11.9585 42.125 12.5195 42.125 17C42.125 21.482 42.1006 22.043 42.0013 23.8025C41.9019 25.5575 41.5513 26.7575 41.0413 27.8075C40.5237 28.9086 39.7124 29.9063 38.6637 30.731C37.6325 31.571 36.3856 32.219 35.0112 32.633C33.6987 33.041 32.1987 33.32 30.005 33.401C27.8037 33.482 27.1025 33.5 21.5 33.5C15.8975 33.5 15.1962 33.4805 12.9969 33.401C10.8031 33.3215 9.30313 33.041 7.99063 32.633C6.61423 32.2189 5.36716 31.5699 4.33625 30.731C3.28696 29.907 2.47497 28.9098 1.95688 27.809C1.44875 26.759 1.1 25.559 0.99875 23.804C0.8975 22.0415 0.875 21.4805 0.875 17C0.875 12.518 0.899375 11.957 0.99875 10.199C1.09812 8.441 1.44875 7.241 1.95688 6.191C2.47573 5.09012 3.28835 4.09297 4.33812 3.269C5.36758 2.42975 6.61339 1.78017 7.98875 1.3655C9.30125 0.959 10.8013 0.68 12.995 0.599H12.9969ZM29.8344 3.569C27.6594 3.4895 27.0069 3.473 21.5 3.473C15.9931 3.473 15.3406 3.4895 13.1656 3.569C11.1537 3.6425 10.0625 3.911 9.335 4.1375C8.37313 4.4375 7.685 4.793 6.96313 5.3705C6.27883 5.90308 5.75221 6.55142 5.42188 7.268C5.13875 7.85 4.80312 8.723 4.71125 10.3325C4.61188 12.0725 4.59125 12.5945 4.59125 17C4.59125 21.4055 4.61188 21.9275 4.71125 23.6675C4.80312 25.277 5.13875 26.15 5.42188 26.732C5.75187 27.4475 6.27875 28.097 6.96313 28.6295C7.62875 29.177 8.44063 29.5985 9.335 29.8625C10.0625 30.089 11.1537 30.3575 13.1656 30.431C15.3406 30.5105 15.9913 30.527 21.5 30.527C27.0087 30.527 27.6594 30.5105 29.8344 30.431C31.8462 30.3575 32.9375 30.089 33.665 29.8625C34.6269 29.5625 35.315 29.207 36.0369 28.6295C36.7212 28.097 37.2481 27.4475 37.5781 26.732C37.8613 26.15 38.1969 25.277 38.2887 23.6675C38.3881 21.9275 38.4087 21.4055 38.4087 17C38.4087 12.5945 38.3881 12.0725 38.2887 10.3325C38.1969 8.723 37.8613 7.85 37.5781 7.268C37.2031 6.4985 36.7588 5.948 36.0369 5.3705C35.3711 4.82311 34.5607 4.40182 33.665 4.1375C32.9375 3.911 31.8462 3.6425 29.8344 3.569ZM18.8656 22.0865C20.3369 22.5764 21.9751 22.6426 23.5005 22.2736C25.0259 21.9046 26.3439 21.1234 27.2293 20.0634C28.1147 19.0034 28.5126 17.7303 28.3551 16.4617C28.1976 15.193 27.4944 14.0075 26.3656 13.1075C25.6461 12.5322 24.776 12.0917 23.8181 11.8177C22.8602 11.5437 21.8383 11.443 20.8259 11.5229C19.8136 11.6028 18.8359 11.8613 17.9634 12.2797C17.0909 12.6981 16.3451 13.2661 15.7799 13.9428C15.2147 14.6194 14.8441 15.3879 14.6947 16.1929C14.5453 16.9979 14.6209 17.8194 14.916 18.5983C15.2111 19.3771 15.7184 20.0939 16.4014 20.6971C17.0843 21.3003 17.9259 21.7748 18.8656 22.0865ZM14.0037 11.003C14.9882 10.2155 16.1568 9.59075 17.4431 9.16454C18.7293 8.73833 20.1078 8.51896 21.5 8.51896C22.8922 8.51896 24.2707 8.73833 25.5569 9.16454C26.8431 9.59075 28.0118 10.2155 28.9963 11.003C29.9807 11.7905 30.7616 12.7255 31.2943 13.7544C31.8271 14.7834 32.1013 15.8863 32.1013 17C32.1013 18.1137 31.8271 19.2166 31.2943 20.2456C30.7616 21.2745 29.9807 22.2095 28.9963 22.997C27.0081 24.5875 24.3116 25.481 21.5 25.481C18.6884 25.481 15.9919 24.5875 14.0037 22.997C12.0156 21.4065 10.8987 19.2493 10.8987 17C10.8987 14.7507 12.0156 12.5935 14.0037 11.003ZM34.4525 9.782C34.6964 9.5979 34.8917 9.37652 35.0268 9.13096C35.1619 8.8854 35.234 8.62065 35.2389 8.3524C35.2438 8.08414 35.1814 7.81782 35.0553 7.56921C34.9292 7.32061 34.7421 7.09477 34.5049 6.90506C34.2678 6.71535 33.9855 6.56564 33.6747 6.46478C33.364 6.36392 33.0311 6.31396 32.6958 6.31787C32.3604 6.32178 32.0295 6.37948 31.7225 6.48754C31.4156 6.59561 31.1389 6.75184 30.9087 6.947C30.4612 7.32654 30.2162 7.83068 30.2257 8.3524C30.2352 8.87411 30.4985 9.37232 30.9597 9.74126C31.4209 10.1102 32.0436 10.3208 32.6958 10.3284C33.3479 10.3361 33.9781 10.14 34.4525 9.782Z" fill="black"></path></svg>