<svg xmlns="http://www.w3.org/2000/svg" width="54" height="29" viewBox="0 0 54 29" fill="none"><path fill-rule="evenodd" clip-rule="evenodd" d="M27.7324 6.76288C30.8644 3.4685 34.3271 0.875 38.7551 0.875C47.115 0.875 54 9.15162 54.0034 19.0059C54.0034 25.0171 50.6756 28.784 44.6985 28.784C39.4909 28.784 36.6154 26.5108 31.455 19.796L29.2039 16.8481L28.8056 16.331C28.2186 15.5593 27.6223 14.7919 27.0169 14.0289L23.0411 19.4889C17.3948 27.167 14.2155 28.784 9.801 28.784C3.66525 28.784 0 25.0696 0 19.1791C0 9.7685 6.73313 0.875 15.5183 0.875C16.5949 0.875 17.6276 0.977375 18.6367 1.19525C19.683 1.421 20.6989 1.77275 21.7181 2.26363C23.6655 3.206 25.6129 4.6655 27.7324 6.76288ZM32.8489 12.6009C31.9984 11.5246 31.1816 10.535 30.3952 9.62675L30.375 9.60575C33.2269 6.18013 35.5826 4.4765 38.3805 4.4765C44.1956 4.4765 48.8497 11.1361 48.8497 19.3156C48.8497 22.4341 47.5335 24.2428 44.8166 24.2428C42.2078 24.2428 40.9624 22.904 36.0079 16.709L32.8455 12.6009H32.8489ZM16.3553 5.4845C18.8021 5.747 21.0296 7.14875 24.2527 10.7371C22.393 12.952 20.5536 15.1772 18.7346 17.4125C14.1548 22.9933 12.5719 24.2454 10.0238 24.2454C7.40138 24.2454 5.83875 22.4551 5.83875 19.2579C5.83875 12.4276 10.2195 5.43987 15.444 5.43987C15.7511 5.43987 16.0549 5.45562 16.3553 5.48712V5.4845Z" fill="black"></path></svg>