<svg xmlns="http://www.w3.org/2000/svg" width="43" height="28" viewBox="0 0 43 28" fill="none"><path d="M42.3454 3.4055C40.8146 3.9605 39.1701 4.3355 37.4413 4.505C39.2251 3.63169 40.5597 2.2572 41.1959 0.638001C39.52 1.45249 37.6857 2.02579 35.7729 2.333C34.4866 1.2093 32.7829 0.46449 30.9262 0.214212C29.0695 -0.0360662 27.1638 0.222188 25.5049 0.94888C23.846 1.67557 22.5267 2.83004 21.7519 4.23306C20.9771 5.63607 20.7901 7.20913 21.2199 8.708C17.824 8.56849 14.5019 7.84632 11.4692 6.58836C8.43651 5.33039 5.76098 3.56474 3.61627 1.406C2.88294 2.441 2.46127 3.641 2.46127 4.919C2.46046 6.06949 2.80673 7.20236 3.46938 8.2171C4.13204 9.23183 5.09057 10.0971 6.25994 10.736C4.90378 10.7007 3.57754 10.4009 2.39161 9.8615V9.9515C2.39147 11.5651 3.07367 13.1291 4.32244 14.378C5.57122 15.6269 7.30965 16.4839 9.24277 16.8035C7.98471 17.0821 6.66573 17.1231 5.38544 16.9235C5.93085 18.3119 6.99327 19.526 8.42395 20.3959C9.85463 21.2657 11.582 21.7478 13.3641 21.7745C10.3388 23.7176 6.60257 24.7716 2.75644 24.767C2.07514 24.7672 1.39441 24.7346 0.717773 24.6695C4.62181 26.7233 9.1664 27.8132 13.8078 27.809C29.5194 27.809 38.1086 17.162 38.1086 7.928C38.1086 7.628 38.0994 7.325 38.0829 7.025C39.7536 6.03646 41.1958 4.81234 42.3418 3.41L42.3454 3.4055Z" fill="black"></path></svg>